<svg aria-hidden="true" style="width:0;height:0;position:absolute;overflow:hidden" xmlns="http://www.w3.org/2000/svg"><defs><symbol id="icon-logo" viewBox="0 0 32 32"><path d="M28.315 6.422 18.618 1.13c-.706-.385-1.636-.597-2.619-.597s-1.913.212-2.618.597L3.684 6.421c-1.469.802-2.619 2.684-2.619 4.286v10.586c0 1.602 1.15 3.484 2.618 4.285l9.697 5.291c.706.385 1.635.597 2.618.597s1.913-.212 2.618-.597l9.697-5.293c1.468-.801 2.618-2.684 2.618-4.286V10.705c0-1.598-1.15-3.482-2.618-4.283zM4.226 24.69c-1.125-.613-2.075-2.17-2.075-3.398v-4.524c3.453-.257 5.498.608 8.052 1.694 2.298.978 5.061 2.152 9.577 2.784-.844.154-1.696.294-2.545.434-4.612.761-8.973 1.485-11.357 3.911l-1.652-.901zm14.567-9.207c-2.084.783-4.798 1.485-8.811 1.764-1.775-.745-3.464-1.375-5.677-1.52l7.373-6.97 7.115 6.725zm-.516-1.936 5.302-5.011 3.985 3.767c-2.293.197-3.9.965-5.679 1.822-.62.298-1.28.614-2.014.928l-1.593-1.506zm11.572 7.745c0 1.228-.95 2.784-2.076 3.398l-9.698 5.292c-.533.292-1.29.461-2.075.461s-1.541-.167-2.076-.46l-7.085-3.868c2.187-2.042 6.273-2.716 10.582-3.427 4.858-.8 9.859-1.627 12.428-4.591v3.194zm0-5.109c-1.14 2.337-3.733 3.563-6.823 4.368-5.323-.365-8.46-1.408-11.031-2.458 5.258-.595 8.072-1.947 10.381-3.058 2.274-1.094 4.096-1.964 7.473-1.716v2.863zm0-3.891a16.96 16.96 0 0 0-.781-.039h-.022l-5.083-4.804a.544.544 0 0 0-.172-.11l-.004-.001a.568.568 0 0 0-.591.112l-5.684 5.372-5.451-5.151a.544.544 0 0 0-.172-.11l-.004-.001a.568.568 0 0 0-.591.111l-8.501 8.037c-.251.008-.473.019-.694.035l.054-.003v-5.03c0-1.228.95-2.785 2.075-3.398l9.698-5.292c.535-.292 1.292-.46 2.076-.46s1.541.167 2.076.46l9.698 5.292c1.125.614 2.076 2.17 2.076 3.398l-.003 1.583z"/></symbol><symbol id="icon-menu" viewBox="0 0 32 32"><path d="M6.4 11.734V9.6h19.2v2.134H6.4zm0 5.332h19.2v-2.133H6.4v2.133zm0 5.334h19.2v-2.134H6.4V22.4z"/></symbol><symbol id="icon-close" viewBox="0 0 32 32"><path d="M23.734 10.304 22.23 8.8l-5.963 5.962L10.305 8.8l-1.504 1.504 5.962 5.962-5.962 5.963 1.504 1.504 5.962-5.963 5.963 5.963 1.504-1.504-5.963-5.963 5.963-5.962z"/></symbol><symbol id="icon-telegram" viewBox="0 0 32 32"><path d="M15.992 2.666c-7.364 0-13.333 5.969-13.333 13.333s5.969 13.333 13.333 13.333c7.363 0 13.333-5.969 13.333-13.333S23.356 2.666 15.992 2.666zm4.24 20.204a.944.944 0 0 1-1.34.467l.005.002-3.619-2.814-2.322 2.144a.397.397 0 0 1-.383.051l.003.001.445-3.986.014.012.01-.078s6.513-5.93 6.778-6.183c.27-.252.18-.306.18-.306.016-.306-.482 0-.482 0l-8.63 5.552-3.594-1.224s-.552-.198-.604-.634c-.054-.432.622-.666.622-.666l14.29-5.678s1.174-.522 1.174.344l-2.544 12.995z"/></symbol><symbol id="icon-instagram" viewBox="0 0 32 32"><path d="M10.4 2.666h11.2a7.74 7.74 0 0 1 7.734 7.734V21.601a7.733 7.733 0 0 1-7.733 7.733H10.4A7.74 7.74 0 0 1 2.666 21.6V10.4A7.734 7.734 0 0 1 10.4 2.667zm-.266 2.668a4.8 4.8 0 0 0-4.8 4.8v11.734c0 2.653 2.147 4.8 4.8 4.8h11.734a4.8 4.8 0 0 0 4.8-4.8V10.134c0-2.654-2.146-4.8-4.8-4.8H10.134zm12.867 2a1.666 1.666 0 0 1 0 3.332 1.666 1.666 0 0 1 0-3.332zm-7 2a6.666 6.666 0 0 1 0 13.332 6.666 6.666 0 0 1 0-13.332zM16 12a4 4 0 0 0 0 8 4 4 0 0 0 0-8z"/></symbol><symbol id="icon-facebook" viewBox="0 0 32 32"><path d="M16 2.72c-7.333 0-13.333 5.986-13.333 13.36 0 6.666 4.88 12.2 11.254 13.2v-9.334h-3.387V16.08h3.387v-2.946c0-3.347 1.986-5.187 5.04-5.187 1.453 0 2.973.254 2.973.254v3.294h-1.68c-1.653 0-2.173 1.026-2.173 2.08v2.506h3.706l-.6 3.866h-3.106v9.334c6.415-1.042 11.253-6.541 11.253-13.17v-.031.002c0-7.374-6-13.36-13.333-13.36z"/></symbol><symbol id="icon-star_small" viewBox="0 0 32 32"><path fill="#f7fbfb" style="fill:var(--color1,#f7fbfb)" d="M15.365 4.619a.668.668 0 0 1 1.268-.005l.001.005 2.209 6.8c.089.27.339.461.633.461h7.152a.667.667 0 0 1 .394 1.204l-.002.001-5.787 4.204a.667.667 0 0 0-.24.75l-.001-.005 2.209 6.8a.667.667 0 0 1-1.029.745l.002.001-5.784-4.204a.664.664 0 0 0-.786.002l.002-.001-5.785 4.204a.667.667 0 0 1-1.025-.752l-.001.005 2.211-6.8a.668.668 0 0 0-.241-.746l-.002-.001-5.785-4.201a.667.667 0 0 1 .392-1.206h7.152a.667.667 0 0 0 .632-.457l.001-.005 2.209-6.8z"/></symbol><symbol id="icon-place" viewBox="0 0 32 32"><path d="M16 2.4c-5.307 0-9.6 4.257-9.6 9.52C6.4 19.06 16 29.6 16 29.6s9.6-10.54 9.6-17.68c0-5.263-4.292-9.52-9.6-9.52zm0 12.92a3.442 3.442 0 0 1-2.424-.996 3.384 3.384 0 0 1 0-4.808 3.43 3.43 0 0 1 2.422-.996H16c.91 0 1.782.358 2.425.996a3.379 3.379 0 0 1 1.004 2.404c0 .902-.361 1.766-1.004 2.404a3.43 3.43 0 0 1-2.422.996H16z"/></symbol><symbol id="icon-phone" viewBox="0 0 32 32"><path d="M21.415 1.6H10.584a3.44 3.44 0 0 0-2.393.959 3.213 3.213 0 0 0-.992 2.313v22.255c0 .868.357 1.7.992 2.315a3.431 3.431 0 0 0 2.383.958h10.839c.898 0 1.76-.345 2.394-.958a3.213 3.213 0 0 0 .991-2.315V4.873c0-.868-.356-1.7-.991-2.314a3.43 3.43 0 0 0-2.385-.959h-.009zm-5.416 27.491c-1.123 0-2.03-.877-2.03-1.964 0-1.086.907-1.963 2.03-1.963 1.124 0 2.031.877 2.031 1.963s-.907 1.964-2.03 1.964zm6.092-5.236H9.908V5.527H22.09v18.328z"/></symbol><symbol id="icon-email" viewBox="0 0 32 32"><path d="M26.88 5.6H5.12c-1.496 0-2.706 1.17-2.706 2.6L2.4 23.8c0 1.43 1.224 2.6 2.72 2.6h21.76c1.496 0 2.72-1.17 2.72-2.6V8.2c0-1.43-1.224-2.6-2.72-2.6zm-.544 5.525-9.615 5.746c-.206.122-.455.195-.721.195s-.514-.072-.727-.198l.007.004-9.616-5.746a1.151 1.151 0 0 1-.348-.288l-.002-.002a1.051 1.051 0 0 1-.241-.672c0-.219.066-.422.18-.591l-.002.004a1.175 1.175 0 0 1 1.218-.495l-.008-.001c.154.03.299.089.427.174L16 14.702l9.112-5.447a1.173 1.173 0 0 1 .9-.173l-.008-.001a1.14 1.14 0 0 1 .747.497 1.063 1.063 0 0 1 .138.868l.002-.008a1.104 1.104 0 0 1-.548.686l-.006.003z"/></symbol><symbol id="icon-right" viewBox="0 0 32 32"><path d="M12.206 26.4c.275-.004.525-.111.713-.284l-.001.001 9.99-9.843a.987.987 0 0 0 0-1.404l-9.99-9.843a1.02 1.02 0 0 0-1.358.065.988.988 0 0 0-.065 1.339l-.001-.002 9.291 9.143-9.291 9.143c-.18.179-.291.427-.291.701s.111.522.291.701c.187.173.437.28.711.283h.001z"/></symbol><symbol id="icon-left" viewBox="0 0 32 32"><path d="M19.794 26.4a1.073 1.073 0 0 1-.713-.284l.001.001-9.991-9.842a.987.987 0 0 1 0-1.404l9.991-9.843a1.016 1.016 0 0 1 1.357.065.988.988 0 0 1 .065 1.339l.001-.002-9.291 9.143 9.291 9.143c.18.179.291.427.291.701s-.111.522-.291.701c-.187.173-.437.28-.711.283h-.001z"/></symbol><symbol id="icon-checkbox" viewBox="0 0 34 32"><path d="M30.34 3.556v24.887H3.793V3.556H30.34zm0-3.556H3.793C1.707 0 0 1.6 0 3.556v24.887c0 1.956 1.707 3.556 3.793 3.556H30.34c2.086 0 3.793-1.6 3.793-3.556V3.556C34.133 1.6 32.426 0 30.34 0z"/></symbol><symbol id="icon-round" viewBox="0 0 32 32"><path d="M16 9.333C8.64 9.333 2.665 12.32 2.665 16c0 2.987 3.92 5.507 9.333 6.36v2.693c0 .6.72.894 1.134.467l3.72-3.72a.657.657 0 0 0 0-.947l-3.72-3.72a.666.666 0 0 0-1.134.474v2.033c-4.2-.747-6.666-2.533-6.666-3.64 0-1.413 4.053-4 10.666-4s10.667 2.587 10.667 4c0 .88-1.6 2.24-4.427 3.12-.546.173-.906.68-.906 1.253 0 .894.866 1.547 1.706 1.28 3.774-1.173 6.294-3.266 6.294-5.653 0-3.68-5.974-6.667-13.334-6.667z"/></symbol></defs></svg>