<svg aria-hidden="true" style="position: absolute; width: 0; height: 0; overflow: hidden;" version="1.1" xmlns="http://www.w3.org/2000/svg" xmlns:xlink="http://www.w3.org/1999/xlink">
<defs>
<symbol id="icon-logo" viewBox="0 0 32 32">
<path  d="M28.315 6.422l-9.697-5.292c-0.706-0.385-1.636-0.597-2.619-0.597s-1.913 0.212-2.618 0.597l-9.697 5.291c-1.469 0.802-2.619 2.684-2.619 4.286v10.586c0 1.602 1.15 3.484 2.618 4.285l9.697 5.291c0.706 0.385 1.635 0.597 2.618 0.597s1.913-0.212 2.618-0.597l9.697-5.293c1.468-0.801 2.618-2.684 2.618-4.286v-10.585c0-1.598-1.15-3.482-2.618-4.283zM4.226 24.69c-1.125-0.613-2.075-2.17-2.075-3.398v-4.524c3.453-0.257 5.498 0.608 8.052 1.694 2.298 0.978 5.061 2.152 9.577 2.784-0.844 0.154-1.696 0.294-2.545 0.434-4.612 0.761-8.973 1.485-11.357 3.911l-1.652-0.901zM18.793 15.483c-2.084 0.783-4.798 1.485-8.811 1.764-1.775-0.745-3.464-1.375-5.677-1.52l7.373-6.97 7.115 6.725zM18.277 13.547l5.302-5.011 3.985 3.767c-2.293 0.197-3.9 0.965-5.679 1.822-0.62 0.298-1.28 0.614-2.014 0.928l-1.593-1.506zM29.849 21.292c0 1.228-0.95 2.784-2.076 3.398l-9.698 5.292c-0.533 0.292-1.29 0.461-2.075 0.461s-1.541-0.167-2.076-0.46l-7.085-3.868c2.187-2.042 6.273-2.716 10.582-3.427 4.858-0.8 9.859-1.627 12.428-4.591v3.194zM29.849 16.183c-1.14 2.337-3.733 3.563-6.823 4.368-5.323-0.365-8.46-1.408-11.031-2.458 5.258-0.595 8.072-1.947 10.381-3.058 2.274-1.094 4.096-1.964 7.473-1.716v2.863zM29.849 12.292c-0.221-0.017-0.5-0.031-0.781-0.039l-0.022-0-5.083-4.804c-0.049-0.047-0.108-0.084-0.172-0.11l-0.004-0.001c-0.061-0.024-0.132-0.038-0.206-0.038-0.149 0-0.284 0.057-0.385 0.15l0-0-5.684 5.372-5.451-5.151c-0.049-0.047-0.108-0.084-0.172-0.11l-0.004-0.001c-0.061-0.024-0.132-0.039-0.206-0.039-0.149 0-0.284 0.057-0.385 0.15l0-0-8.501 8.037c-0.251 0.008-0.473 0.019-0.694 0.035l0.054-0.003v-5.030c0-1.228 0.95-2.785 2.075-3.398l9.698-5.292c0.535-0.292 1.292-0.46 2.076-0.46s1.541 0.167 2.076 0.46l9.698 5.292c1.125 0.614 2.076 2.17 2.076 3.398l-0.003 1.583z"></path>
</symbol>
<symbol id="icon-menu" viewBox="0 0 32 32">
<path d="M6.4 11.734v-2.134h19.2v2.134h-19.2zM6.4 17.066h19.2v-2.133h-19.2v2.133zM6.4 22.4h19.2v-2.134h-19.2v2.134z"></path>
</symbol>
<symbol id="icon-close" viewBox="0 0 32 32">
<path d="M23.734 10.304l-1.504-1.504-5.963 5.962-5.962-5.962-1.504 1.504 5.962 5.962-5.962 5.963 1.504 1.504 5.962-5.963 5.963 5.963 1.504-1.504-5.963-5.963 5.963-5.962z"></path>
</symbol>
<symbol id="icon-telegram" viewBox="0 0 32 32">
<path d="M15.992 2.666c-7.364 0-13.333 5.969-13.333 13.333s5.969 13.333 13.333 13.333v0c7.363 0 13.333-5.969 13.333-13.333s-5.969-13.333-13.333-13.333v0zM20.232 22.87c-0.143 0.349-0.48 0.591-0.873 0.591-0.17 0-0.33-0.045-0.467-0.124l0.005 0.002-3.619-2.814-2.322 2.144c-0.066 0.049-0.148 0.078-0.238 0.078-0.051 0-0.1-0.010-0.145-0.027l0.003 0.001 0.445-3.986 0.014 0.012 0.010-0.078s6.513-5.93 6.778-6.183c0.27-0.252 0.18-0.306 0.18-0.306 0.016-0.306-0.482 0-0.482 0l-8.63 5.552-3.594-1.224s-0.552-0.198-0.604-0.634c-0.054-0.432 0.622-0.666 0.622-0.666l14.29-5.678s1.174-0.522 1.174 0.344l-2.544 12.995z"></path>
</symbol>
<symbol id="icon-instagram" viewBox="0 0 32 32">
<path d="M10.4 2.666h11.2c4.267 0 7.734 3.467 7.734 7.734v11.2c0 0 0 0.001 0 0.001 0 4.271-3.462 7.733-7.733 7.733h-11.201c-4.267 0-7.734-3.467-7.734-7.734v-11.2c0-4.271 3.463-7.733 7.734-7.733v0zM10.134 5.334c-2.651 0-4.8 2.149-4.8 4.8v0 11.734c0 2.653 2.147 4.8 4.8 4.8h11.734c2.651 0 4.8-2.149 4.8-4.8v0-11.734c0-2.654-2.146-4.8-4.8-4.8h-11.734zM23.001 7.334c0.92 0 1.666 0.746 1.666 1.666s-0.746 1.666-1.666 1.666v0c-0.92 0-1.666-0.746-1.666-1.666s0.746-1.666 1.666-1.666v0zM16.001 9.334c3.682 0 6.666 2.985 6.666 6.666s-2.985 6.666-6.666 6.666v0c-3.682 0-6.666-2.985-6.666-6.666s2.985-6.666 6.666-6.666v0zM16 12c-2.209 0-4 1.791-4 4s1.791 4 4 4v0c2.209 0 4-1.791 4-4s-1.791-4-4-4v0z"></path>
</symbol>
<symbol id="icon-facebook" viewBox="0 0 32 32">
<path  d="M16 2.72c-7.333 0-13.333 5.986-13.333 13.36 0 6.666 4.88 12.2 11.254 13.2v-9.334h-3.387v-3.866h3.387v-2.946c0-3.347 1.986-5.187 5.040-5.187 1.453 0 2.973 0.254 2.973 0.254v3.294h-1.68c-1.653 0-2.173 1.026-2.173 2.080v2.506h3.706l-0.6 3.866h-3.106v9.334c6.415-1.042 11.253-6.541 11.253-13.17 0-0.010 0-0.021-0-0.031v0.002c0-7.374-6-13.36-13.333-13.36z"></path>
</symbol>
<symbol id="icon-star_small" viewBox="0 0 32 32">
<path fill="#f7fbfb" style="fill: var(--color1, #f7fbfb)" d="M15.365 4.619c0.089-0.271 0.339-0.463 0.635-0.463s0.546 0.192 0.633 0.458l0.001 0.005 2.209 6.8c0.089 0.27 0.339 0.461 0.633 0.461h7.152c0.368 0 0.666 0.299 0.666 0.667 0 0.22-0.107 0.416-0.272 0.537l-0.002 0.001-5.787 4.204c-0.167 0.123-0.274 0.318-0.274 0.539 0 0.074 0.012 0.145 0.034 0.211l-0.001-0.005 2.209 6.8c0.021 0.062 0.033 0.134 0.033 0.208 0 0.368-0.298 0.667-0.667 0.667-0.148 0-0.285-0.048-0.395-0.13l0.002 0.001-5.784-4.204c-0.108-0.080-0.245-0.127-0.392-0.127s-0.284 0.048-0.394 0.129l0.002-0.001-5.785 4.204c-0.109 0.080-0.245 0.128-0.393 0.128-0.368 0-0.667-0.298-0.667-0.667 0-0.075 0.012-0.146 0.035-0.213l-0.001 0.005 2.211-6.8c0.021-0.062 0.033-0.133 0.033-0.207 0-0.221-0.108-0.417-0.274-0.539l-0.002-0.001-5.785-4.201c-0.167-0.123-0.274-0.318-0.274-0.539 0-0.368 0.298-0.666 0.666-0.667h7.152c0.294-0 0.544-0.192 0.632-0.457l0.001-0.005 2.209-6.8z"></path>
</symbol>
<symbol id="icon-place" viewBox="0 0 32 32">
<path d="M16 2.4c-5.307 0-9.6 4.257-9.6 9.52 0 7.14 9.6 17.68 9.6 17.68s9.6-10.54 9.6-17.68c0-5.263-4.292-9.52-9.6-9.52zM16 15.32c-0.909 0-1.781-0.358-2.424-0.996-0.62-0.613-1.003-1.464-1.004-2.404v-0c0-0.902 0.361-1.767 1.004-2.404 0.622-0.616 1.477-0.996 2.422-0.996 0.001 0 0.001 0 0.002 0h-0c0.91 0 1.782 0.358 2.425 0.996 0.619 0.613 1.003 1.464 1.004 2.404v0c0 0.902-0.361 1.766-1.004 2.404-0.622 0.616-1.477 0.996-2.422 0.996-0.001 0-0.002 0-0.003 0h0z"></path>
</symbol>
<symbol id="icon-phone" viewBox="0 0 32 32">
<path  d="M21.415 1.6h-10.831c-0.898 0-1.759 0.345-2.393 0.959-0.609 0.585-0.989 1.405-0.992 2.313v22.255c0 0.868 0.357 1.7 0.992 2.315 0.618 0.593 1.458 0.958 2.383 0.958 0.003 0 0.007 0 0.010 0h10.829c0.898 0 1.76-0.345 2.394-0.958 0.609-0.585 0.988-1.405 0.991-2.315v-22.254c0-0.868-0.356-1.7-0.991-2.314-0.618-0.594-1.458-0.959-2.385-0.959-0.003 0-0.006 0-0.009 0h0zM15.999 29.091c-1.123 0-2.030-0.877-2.030-1.964 0-1.086 0.907-1.963 2.030-1.963 1.124 0 2.031 0.877 2.031 1.963s-0.907 1.964-2.030 1.964zM22.091 23.855h-12.183v-18.328h12.182v18.328z"></path>
</symbol>
<symbol id="icon-email" viewBox="0 0 32 32">
<path d="M26.88 5.6h-21.76c-1.496 0-2.706 1.17-2.706 2.6l-0.014 15.6c0 1.43 1.224 2.6 2.72 2.6h21.76c1.496 0 2.72-1.17 2.72-2.6v-15.6c0-1.43-1.224-2.6-2.72-2.6zM26.336 11.125l-9.615 5.746c-0.206 0.122-0.455 0.195-0.721 0.195s-0.514-0.072-0.727-0.198l0.007 0.004-9.616-5.746c-0.138-0.075-0.254-0.172-0.348-0.288l-0.002-0.002c-0.15-0.181-0.241-0.416-0.241-0.672 0-0.219 0.066-0.422 0.18-0.591l-0.002 0.004c0.082-0.127 0.19-0.236 0.32-0.322 0.184-0.124 0.412-0.198 0.656-0.198 0.083 0 0.164 0.008 0.242 0.025l-0.008-0.001c0.154 0.030 0.299 0.089 0.427 0.174l9.112 5.447 9.112-5.447c0.184-0.124 0.411-0.198 0.656-0.198 0.084 0 0.165 0.009 0.244 0.025l-0.008-0.001c0.153 0.030 0.298 0.090 0.427 0.175 0.128 0.086 0.237 0.195 0.32 0.322 0.11 0.166 0.175 0.369 0.175 0.588 0 0.097-0.013 0.19-0.037 0.28l0.002-0.008c-0.040 0.144-0.108 0.28-0.204 0.399s-0.212 0.215-0.344 0.287l-0.006 0.003z"></path>
</symbol>
<symbol id="icon-right" viewBox="0 0 32 32">
<path d="M12.206 26.4c0.275-0.004 0.525-0.111 0.713-0.284l-0.001 0.001 9.99-9.843c0.18-0.179 0.292-0.427 0.292-0.702s-0.112-0.523-0.292-0.702l-0-0-9.99-9.843c-0.174-0.142-0.398-0.228-0.642-0.228-0.279 0-0.531 0.112-0.716 0.293l0-0c-0.182 0.18-0.295 0.429-0.295 0.705 0 0.241 0.086 0.462 0.23 0.634l-0.001-0.002 9.291 9.143-9.291 9.143c-0.18 0.179-0.291 0.427-0.291 0.701s0.111 0.522 0.291 0.701l0 0c0.187 0.173 0.437 0.28 0.711 0.283h0.001z"></path>
</symbol>
<symbol id="icon-left" viewBox="0 0 32 32">
<path d="M19.794 26.4c-0.275-0.004-0.525-0.111-0.713-0.284l0.001 0.001-9.991-9.842c-0.18-0.179-0.292-0.427-0.292-0.702s0.112-0.522 0.292-0.702l0-0 9.991-9.843c0.174-0.142 0.398-0.228 0.642-0.228 0.279 0 0.531 0.112 0.715 0.293l-0-0c0.182 0.18 0.295 0.429 0.295 0.705 0 0.241-0.086 0.462-0.23 0.634l0.001-0.002-9.291 9.143 9.291 9.143c0.18 0.179 0.291 0.427 0.291 0.701s-0.111 0.522-0.291 0.701l-0 0c-0.187 0.173-0.437 0.28-0.711 0.283h-0.001z"></path>
</symbol>
<symbol id="icon-checkbox" viewBox="0 0 34 32">
<path d="M30.34 3.556v24.887h-26.547v-24.887h26.547zM30.34 0h-26.547c-2.086 0-3.793 1.6-3.793 3.556v24.887c0 1.956 1.707 3.556 3.793 3.556h26.547c2.086 0 3.793-1.6 3.793-3.556v-24.887c0-1.956-1.707-3.556-3.793-3.556z"></path>
</symbol>
<symbol id="icon-round" viewBox="0 0 32 32">
<path d="M16 9.333c-7.36 0-13.335 2.987-13.335 6.667 0 2.987 3.92 5.507 9.333 6.36v2.693c0 0.6 0.72 0.894 1.134 0.467l3.72-3.72c0.124-0.12 0.2-0.288 0.2-0.474s-0.077-0.353-0.2-0.473l-3.72-3.72c-0.12-0.119-0.286-0.192-0.468-0.192-0.368 0-0.666 0.298-0.666 0.666 0 0.002 0 0.004 0 0.006v-0 2.027c-4.2-0.747-6.666-2.533-6.666-3.64 0-1.413 4.053-4 10.666-4s10.667 2.587 10.667 4c0 0.88-1.6 2.24-4.427 3.12-0.546 0.173-0.906 0.68-0.906 1.253 0 0.894 0.866 1.547 1.706 1.28 3.774-1.173 6.294-3.266 6.294-5.653 0-3.68-5.974-6.667-13.334-6.667z"></path>
</symbol>
</defs>
</svg>
